# xmcd CD database file generated by libcdaudio 0.99.1
# 
# Track frame offsets:
#       150
#       16475
#       31452
#       54132
#       69210
#       85852
#       110130
#       131987
#       156982
#       179797
#       198387
#       218462
# 
# Disc length: 3036 seconds
# 
# Revision: 4
# Processed by: cddbd v1.4PL0 Copyright (c) Steve Scherf et al.
# Submitted via: libcdaudio 0.99.1
# 
DISCID=a80bda0c
DTITLE=Rusty Zinn - The Chill
DYEAR=2000
DGENRE=Blues
TTITLE0=Just Like A Fish
TTITLE1=Meet Me Halfway
TTITLE2=Fallin' Rain
TTITLE3=She's Got Style
TTITLE4=The Big Eye
TTITLE5=Ladies Choice
TTITLE6=Drinking My Last Dime
TTITLE7=I Played The Game
TTITLE8=The Chill
TTITLE9=Moonlight Blues
TTITLE10=Dying On The Vine
TTITLE11=Looking Back
EXTD=YEAR: 2000 ID3G:   0
EXTT0=
EXTT1=
EXTT2=
EXTT3=
EXTT4=
EXTT5=
EXTT6=
EXTT7=
EXTT8=
EXTT9=
EXTT10=
EXTT11=
PLAYORDER=
